<?xml version="1.0" encoding="utf-8"?>
<!-- Generator: Adobe Illustrator 15.0.0, SVG Export Plug-In . SVG Version: 6.00 Build 0)  -->
<!DOCTYPE svg PUBLIC "-//W3C//DTD SVG 1.1//EN" "http://www.w3.org/Graphics/SVG/1.1/DTD/svg11.dtd">
<svg version="1.1" xmlns="http://www.w3.org/2000/svg" xmlns:xlink="http://www.w3.org/1999/xlink" x="0px" y="0px" width="900px"
	 height="900px" viewBox="0 0 900 900" enable-background="new 0 0 900 900" xml:space="preserve">
<g id="Background" display="none">
	<rect display="inline" fill="#FF6600" width="300" height="300"/>
</g>
<g id="Background_Round">
	<path fill="#FF6600" d="M900,450.003C900,698.528,698.528,900,450,900C201.477,900,0,698.528,0,450.003C0,201.471,201.477,0,450,0
		C698.528,0,900,201.471,900,450.003z"/>
</g>
<g id="Background_Round_copy">
</g>
<g id="Body" display="none">
	<g display="inline" opacity="0.3">
		<path fill="#F0D0B4" d="M496.646,864.993c10.201-15.006,59.815-61.884,109.749-106.151c63.794-60.296,98.742-86.394,102.229-87.7
			C700.86,639,684.677,560.08,687.193,546.855c25.726,2.672,24.976-30.226,26.575-39.431c6.135-37.638,14.323-73.427,1.878-99.873
			c-10.503-14.391-32.736-13.269-32.736-13.269l-52.286-114.855L498.621,164.57l-141.428-25.713l-120.536,138.32
			c0,0-13.822,86.464-7.072,116.355c8.356,30.858-0.858,47.517,5.128,72.498c-0.428,39.431-2.461,54.009,11.988,103.611
			c20.059,45.179,15.04,33.357,40.544,76.86c10.836,18.482,33.058,57.586,33.058,57.586s27.654,37.448,37.878,48.633
			c12.569,10.742,14.319,10.742,27.21,10.742c11.221,21.45,44.544,77.184,53.233,92.822c5.52,22.664,12.006,33.791,19.468,43.714
			h19.421C480.858,884.171,489.741,873.492,496.646,864.993z"/>
	</g>
	<path display="inline" opacity="0.3" fill="#DFB28B" d="M692.241,408.712c12.812,4.84,21.249,15.237,21.214,29.209
		c-0.015,7.412,0.352,14.997-0.36,22.31c-0.574,5.845-7.418,13.403-3.36,18.592c-2.581-6.155-4.816-14.886-4.767-21.545
		c0.056-7.122-0.34-14.007-4.359-19.688c-2.291-3.24-1.274-5.092-2.687-8.262c-1.14-2.552-4.808-3.771-6.741-5.057
		c-1.951-1.307-7.427-3.346-7.928-6.117c-0.498-2.742,3.735-5.637,4.327-8.417c0.794-0.091,1.969-0.293,2.774-0.082"/>
	<path display="inline" opacity="0.3" fill="#CB8C84" d="M390.621,548.358c2.045-14.159,18.738-8.358,29.426-8.358
		c12.39,0,23.66-1.286,36.006-1.286c3.475,0,17.276-1.863,19.324,0.562c4.409,5.209-6.067,11.054-9.029,12.17
		c-5.479,2.054-12.135,1.225-17.818,2.06c-6.615,0.964-12.888,1.857-20.001,1.922c-9.817,0.097-13.635,4.937-21.691,9
		c-8.171,4.125-15.68,4.365-23.959,7.072c-7.107,2.326-12.753,7.046-18.618,12.354c-5.897,5.329-13.816,9.363-19.793,14.581
		c-0.366-5.687,7.151-10.005,9.527-14.672c2.871-5.625,5.695-11.183,9.144-16.793c2.426-3.943,5.821-12.29,8.985-15.243
		c4.034-3.762,12.929-0.152,19.025-1.04c0.111-1.028,0.697-1.995,0.759-2.974"/>
	<path display="inline" opacity="0.3" fill="#F0BEB4" d="M365.549,601.714c12.565,2.508,22.14,0.598,32.625-6.604
		c4.605-3.164,7.57-5.596,13.034-6.896c4.896-1.169,9.894-2.109,14.704-3.249c5.672-1.345,11.156-1.975,16.761-4.289
		c5.142-2.118,9.19-5.385,14.133-7.778c4.682-2.271,11.49-3.211,15.328-6.65c3.697-3.305,4.509-8.851,6.99-12.612
		c-6.126,0.949-11.048,3.466-17.271,5.309c-6.193,1.843-12.009,1.629-18.647,1.629c-11.473,0-26.112-2.719-35.373,4.661
		c-5.52,4.403-6.012,6.562-13.5,6.908c-6.53,0.308-12.17-1.028-17.514,2.376c-5.086,3.24-10.667,9.182-14.49,13.843
		c-2.631,3.214-8.227,7.834-9.712,11.426c2.728,2.511,7.131,0.577,10.362,3.214"/>
	<path display="inline" fill="#56331D" d="M232.584,409.339c1.085-2.396,7.121-5.224,9.428-7.166
		c3.088-2.593,5.685-4.67,8.332-7.714c5.052-5.798,11.761-10.087,17.412-15.108c2.801-2.49,4.846-5.634,8.411-7.263
		c3.592-1.632,7.705-1.415,11.631-1.781c7.875-0.735,16.248-1.23,24.46-0.759c5.61,10.852-6.791,12.223-14.886,12.384
		c-9.589,0.19-15.132,3.917-22.767,8.388c-3.762,2.2-7.178,5.162-10.553,7.834c-3.717,2.936-6.688,4.717-10.686,6.917
		c-7.312,4.034-13.148,11.769-22.531,9.759c-0.935-0.202-2.2-0.19-3.174-0.132c-0.984-4.339,5.494-3.855,6.166-6.604"/>
	<path display="inline" fill="#56331D" d="M387.885,342.064c0.401-2.78,2.807-4.239,3.797-6.568
		c2.651-1.336,4.087-5.253,6.366-7.354c2.481-2.271,5.657-3.771,8.619-5.467c7.494-4.289,14.941-7.175,22.022-12.466
		c6.671-4.98,12.261-9.267,21.023-9.249c10.562,0.021,20.895,0.29,31.21,1.245c6.398,0.592,10.014,4.608,16.793,4.547
		c-5.036,0.835-11.449,0.902-16.421,2.698c-4.055,1.462-7.063,3.797-11.613,3.976c-8.361,0.322-16.21,1.151-23.845,3.636
		c-9.905,3.223-18.624,7.978-27.984,12.237c-8.66,3.94-16.726,5.534-24.976,10.705c-2.089,1.307-4.09,3.094-6.237,1.236"/>
	<path display="inline" opacity="0.3" fill="#CEA28B" d="M665.833,455.388c9.615,0.272,23.906-7.863,25.359,7.052
		c0.627,6.445-1.682,11.291-2.276,17.367c-0.486,4.957,0.012,10.934-6.056,11.895c-0.135-3.738,0.176-6.138-1.468-9.082
		c-1.781-3.193-3.606-2.672-6.146-4.468c-4.787-3.381-5.745-8.631-12.65-8.666c-0.091-2.127-0.337-4.714,0.255-6.68
		c0.592-1.951,2.44-3.129,2.511-6"/>
	<path display="inline" opacity="0.3" fill="#DFB28B" d="M393.671,453.346c6.407-4.702,18.17-15.36,26.341-10.594
		c3.888,2.271,6.463,6.425,10.216,8.839c4.289,2.769,7.793,5.376,11.52,8.684c-1.547,1.799-1.787,4.456-1.465,6.979
		c-5.197-5.988-6.498-14.027-15.006-15.867c-7.529-1.626-21.724-1.216-29.086,0.697"/>
	<path display="inline" opacity="0.3" fill="#9C7761" d="M334.939,478.603c0.387,6.349-2.742,13.099-1.263,19.465
		c1.072,4.611,3.466,5.607,6.524,8.64c4.43,4.389,11.493,10.547,18.765,10.415c9.873-0.17,18.161-2.751,25.72-9.316
		c4.957-4.304,13.228-10.972,15.352-16.969c-5.991,2.941-8.467,6.773-15.7,6.076c-7.034-0.674-8.909-4.872-14.845-7.89
		c-5.73-2.918-11.566-1.872-18.161-2.194c-2.083-0.1-6.709,0.041-8.83-0.633c-3.214-1.031-4.529-3.867-7.562-5.062"/>
</g>
<g id="Shirt" display="none">
	<path display="inline" fill="#231F20" d="M785.145,742.456c-15.419,5.654-34.453,9.521-50.745,11.883
		c-27.592,3.987-52.233,18.281-77.394,28.907c-24.621,10.386-44.118,27.653-70.143,30.205c-9.021,0.882-16.708,1.655-25.623,2.552
		c-8.016,0.803-13.198,3.917-20.432,5.804c-10.356,2.704-10.673,3.697-16.875,12.023c-3.756,5.042-9.718,9.173-13.972,14.095
		c-12.671,14.654-27.428,32.241-32.373,52.075H900V721.591C878.344,719.227,792.858,739.623,785.145,742.456z"/>
	<path display="inline" fill="#231F20" d="M454.245,880.951c-3.97-7.204-3.366-17.098-8.364-23.906
		c-3.671-5.004-2.786-5.886-9.211-1.89c-1.843,1.146-4.825,4.632-6.595,6.249c-5.382,4.942-10.09,8.657-16.146,12.434
		c-12.457,7.767-25.421,17.423-37.201,26.162h90.387C462.923,893.616,457.96,887.701,454.245,880.951z"/>
	<path display="inline" fill="#5D5E61" d="M706.052,672.003c4.884,0,11.423-1.125,16.072,0.19
		c7.374,2.089,7.535,6.539,11.982,11.681c2.965,3.425,8.669,5.877,12.023,9.683c2.944,3.346,4.632,8.54,7.646,11.903
		c6.258,7.002,14.394,11.262,20.675,18.12c7.922,8.64,13.374,12.97,24.173,18.062c-6.771,1.939-9.255,1.588-15.604,5.575
		c-5.801,3.645-11.912,6.729-17.865,10.286c-9.744,5.804-20.089,11.379-29.938,18.472c-18.407,13.248-45.267,29.991-45.773,55.324
		c-16.427,0.935-30.038-4.169-46.154-4.157c-11.716,0.009-23.429,0-35.142,0c-14.016,0-28.204-0.674-42.196,0.009
		c-7.837,0.384-16.74-0.281-24.51,0.855c-5.353,0.773-9.513,3.624-15.264,2.25c-0.671-11.924,20.476-25.767,28.778-33.319
		c11.314-10.307,22.913-19.729,34.74-29.643c24.299-20.391,45.993-45.551,71.065-62.467c13.907-9.372,30.053-20.18,42.721-31.107"/>
</g>
<g id="Layer_19">
</g>
<g id="Mouth">
	<path fill="#4A0F00" d="M346.646,599.971c1.315-5.675,8.669-9.794,12.624-13.474c3.542-3.29,5.355-7.362,8.991-10.805
		c3.085-2.912,7.784-8.01,11.54-9.943c5.49-2.833,9.422,0.231,14.355,0.645c6.293,0.521,6.896-3.337,10.506-7.852
		c3.858-4.825,8.077-5.73,14.364-6.252c11.417-0.94,22.474-1.857,34.011-2.332c4.266-0.17,12.059-0.466,15.568-2.464
		c2.798-1.594,4.787-11.136,8.168-8.487c3.431,2.681-0.035,12.123-2.104,14.007c-3.255,2.962-10.087,5.473-14.314,6.126
		c-11.045,1.699-22.901-1.693-33.92,0.132c-10.321,1.708-16.811,11.42-26.282,14.013c-5.042,1.386-11.32-1.538-16.31,0.507
		c-3.65,1.491-9.396,6.735-12.217,9.759c-3.677,3.932-5.273,8.517-10.91,11.104c-4.438,2.045-9.085,3.595-13.488,5.9
		L346.646,599.971z"/>
</g>
<g id="Nose">
	<path fill="#4A3222" d="M381.894,484.286c2.429-1.184,5.262-1.104,7.734-2.971c3.108-2.341,3.504-5.651,7.441-7.192
		c5.218-2.045,15.691-1.96,21.39-1.755c2.156,8.745-3.551,13.857-11.918,15.706c-6.647,1.468-18.551-6.272-23.522,0.111
		c-1.157-0.469-0.864-0.694-1.74-1.406c0.062-0.653,0.475-0.85,1.248-0.595"/>
	<path fill="#4A3222" d="M346.535,498.179c9.817-4.731,11.024-1.491,17.769,5.054c-4.409,2.13-6.489-1.559-10.321-1.77
		c-3.671-0.196-9.636,4.421-8.08-2.651"/>
</g>
<g id="Eyes">
	<path fill="#4A0F00" d="M417.48,396.267c2.681-0.744,7.708-6.832,10.099-8.276c4.406-2.663,6.17-4.02,10.157-6.976
		c2.44-1.813,10.655-5.552,13.641-5.561c3.396-0.015,0.038,3.123,3.114,4.31c3.609,1.386,7.421,1.233,12.896,0.762
		c3.817-0.331,8.408-1.913,11.188-4.591c3.044-2.933,2.511-5.906,6.645-7.392c5.358-1.919,29.748,2.842,30.914-1.482
		c1.233-4.564-19.89-4.846-23.426-5.569c-10.093-2.06-17.476-0.234-27.53,0.24c-10.799,0.513-21.205,7.38-29.763,13.181
		c-3.598,2.44-6.469,6.056-9.759,9.029c-3.873,3.507-5.886,5.162-8.458,9.237L417.48,396.267z"/>
	<path fill="#4A0F00" d="M267.741,462.214c2.253-0.803,2.435-5.303,3.229-7.321c0.984-2.487,2.35-5.024,3.756-7.468
		c2.824-4.942,5.766-9.7,9.823-13.764c9.19-9.205,18.618-11.651,31.395-12.284c2.115-0.105,4.688-0.29,6.776,0.015
		c2.953,0.428,2.309,1.579,4.45,2.628c0.108,0.923,0.231,1.969,0.34,2.771c-1.198,0.082-3.375-0.381-4.468,0.067
		c-1.875,0.768-1.614,1.304-1.954,3.53c-0.469,3.047-1.734,4.896-3.601,7.327c-3.938,5.106-7.805,4.893-14.385,4.893
		c-3.718,0-5.335-0.076-8.136-2.165c-1.441-1.069-1.266-1.945-3.425-2.03c-2.051-0.085-2.15,0.272-3.782,1.702
		c-4.427,3.867-9.155,7.521-12.141,12.762c-2.37,4.184-3.445,8.268-7.512,10.939c-0.604-0.885-0.844-2.06-0.688-3.208"/>
</g>
<g id="Tattoo">
	<g>
		<path fill="none" stroke="#485654" stroke-width="2.5714" d="M671.549,605.798c2.071-3.686,2.142-8.748,3.557-12.973
			c1.526-4.541,2.646-8.241,5.443-11.191c1.383-1.459,3.029-4.198,4.717-4.57c0.548-0.12,2.194-0.229,2.054,1.412
			c-0.041,0.504-1.638,1.532-1.878,1.702c-1.427,1.052-2.748,1.813-4.037,3.366c-1.392,1.661-1.91,4.128-2.862,6.111
			c-0.715,1.477-1.392,1.808-1.286,3.888c0.401,0.111,1.005,0.401,1.356,0.442c1.184-1.646,0.738-4.245,1.682-6.097
			c0.653-1.271,1.975-2.347,2.897-3.296c2.271-2.309,5.584-3.847,7.573-6.686c1.758,5.763-1.989,9.504-3.606,13.611
			c-1.661,4.254-3.976,8.147-6.357,11.32c-1.28,1.717-3.296,2.959-1.673,5.766c0.873,1.512,2.93,2.859,4.233,1.834
			c1.371-1.096,2.332-4.014,3.627-5.408c1.471-1.588,3.19-2.657,4.767-4.236c2.666-2.66,6.633-3.264,8.959,0.864
			c0.979,1.743,2.276,4.022,3.1,6.179c0.753,1.978,0.902,4.228,1.336,6.527c0.902,4.752-0.366,9.876-2.994,13.189
			c-1.913,2.411-4.339,3.938-6.721,3.929c-1.846-0.012-3.164-0.372-3.806,2.821c-0.331,1.658,0.085,3.727-0.864,4.913
			c-0.551,0.671-2.701,1.125-3.313,1.324c-1.875,0.583-6.771,1.588-8.177-0.551c-0.126-0.996-0.202-1.878-0.17-2.933
			c0.662-0.363,1.354,0,1.992-0.302c0.809-0.393,1.301-1.667,2.335-1.356c1.819,0.542,1.688,1.928,3.387-0.252
			c2.464-3.164,1.816-8.988,2.476-13.74c0.677-4.901,0.879-10.828,4.192-12.296c2.974-1.315,5.687,3.155,7.503,6.349
			c1.497-4.058-1.67-7.011-3.454-8.684c-2.602-2.446-4.5-3.36-7.292,0.047c-0.633,0.776-2.086,2.098-2.502,3.032
			c-0.604,1.345-0.472,4.45-0.621,6.097c-0.302,3.305-1.348,8.227-0.99,11.842c-1.21-1.345-2.678-2.268-3.967-3.404
			c-0.056,2.3,2.426,6.287,3.609,7.031c-2.883,2.051-5.977-1.556-7.192-5.455c-0.691-2.229-1.351-4.67-2.385-6.296
			c-1.266-1.989-2.455-1.799-4.274-1.699c-0.357,2.159-2.3,1.597-3.044,0.243c-0.759-1.348-0.366-2.774,0.07-4.611
			c0.384-1.608,0.281-4.049,0.724-5.66c0.562-2.086,2.065-1.518,2.552-3.527"/>
		<path fill="none" stroke="#485654" stroke-width="2.5714" d="M672.132,608.725c0.688,0.103,1.046-0.914,1.778-0.724
			c0.302,2.599-1.485,2.988-2.314,4.245c-0.056-1.286-0.217-2.883,0.647-3.155"/>
		<path fill="none" stroke="#485654" stroke-width="2.5714" d="M695.341,632.024c0.627,0.059,3.047-0.363,3.504,0.182
			c0.85,1.014-0.908,1.667-1.16,2.771c-0.439,1.969,0.841,3.152-1.125,3.334c-1.107,0.111-2.068,0.393-3.193,0.372
			c-0.407-2.631,2.051-3.577,2.982-4.421c-0.29-0.894-0.823-1.283-1.345-1.688"/>
		<path fill="none" stroke="#485654" stroke-width="2.5714" d="M706.661,619.075c-0.167,1.166,0,2.713-0.211,3.858
			c-0.237,1.274-1.14,1.898-1.005,3.524c1.38,0.252,2.862-0.079,2.792-2.561c-0.044-1.465-0.727-3.032-1.125-4.26"/>
	</g>
</g>
<g id="Hair_Rear">
	<path fill="#4A3222" d="M718.061,482.786c0.463,14.197-1.286,29.145-1.286,43.729c0,7.755-0.073,15.981,1.005,23.092
		c1.216,8.048,3.226,15.425,2.742,23.801c-1.356-2.139-4.257-3.835-5.528-6.261c-1.553-2.959-0.891-6.149-2.446-8.839
		c0.416,6.718,2.08,15.407,3.867,22.339c0.923,3.554,3.565,7.201,4.395,10.767c0.858,3.697-0.448,8.297,1.351,11.537
		c-0.381-0.296-1.324-1.025-1.603-1.392c1.904,7.137,1.087,16.342,3.337,23.725c-1.151-3.727-4.063-8.426-7.746-10.427
		c6.179,8.317,7.397,32.133,1.418,40.813c-0.258-3.275,0.431-7.011-0.132-10.257c-0.642-3.715-3.067-6.7-3.229-10.588
		c-0.012,8.599,0.653,17.479,0,26.048c-1.544,20.259-6.519-8.52-11.481-9.111c-1.538-5.405-4.611-10.175-5.73-15.75
		c-1.181-5.865-1.412-11.903-2.578-17.569c-2.089-10.195-0.179-21.885-3.117-32.071c-2.854-9.873-4.354-24.193-4.104-39.516
		c0.026-1.652,1.91,0.498,4.104,0.12c4.901-0.844,8.408-1.808,10.465-3.712c4.696-4.327,8.508-13.585,9.56-18.372
		c1.456-6.627,1.617-15.688,1.597-23.479c-0.021-7.213,3.595-11.238,4.5-17.341"/>
</g>
<g id="Jewely">
	<path fill="#E6E7E8" d="M376.061,572.786c-2.253-5.956-8.241-0.688-11.104,1.787c-4.104,3.551-6.076,6.067-6.896,11.748
		c-0.882,6.138,1.321,10.11,2.531,12.114c1.11,1.828,3.038,5.766,4.365,7.292c1.872,2.15,2.396,3.727,4.752,3.627
		c1.146,0.24,2.048,0.009,3.053-0.167c0.202-1.028,1.406-3.53,1.4-4.192c-0.044-4.482-1.4-1.649-2.956-4.084
		c-1.86-2.918-3.557-4.898-4.693-8.865c-1.456-5.098-1.816-13.731,10.125-14.183c0.082-1.266,0.404-3.17,0.067-4.436"/>
	<path fill="#DAD7C5" d="M701.9,533.194c4.063-6.855,8.461-11.335,4.84-20.361c-3.062-7.644-7.764-14.669-16.644-15.949
		c-8.549-1.23-16.011,2.449-20.379,9.311c-2.373,3.718-3.888,6.34-4.131,10.939c-0.299,5.684,0.363,6.976,4.148,10.518
		c4.148,3.876,7.465,8.165,13.787,9.39c8.81,1.708,11.974,2.572,18.85-3.847"/>
	<path fill="#767769" d="M689.634,504.899c-4.705,0.029-6.463,0.533-9.557,4.107c-2.054,2.37-4.825,6.841-3.188,10.526
		c1.746,3.952,19.556,12.401,19.878,4.415c7.772-1.676,0.973-20.259-7.134-19.521"/>
	<path fill="#231F20" d="M704.722,447.847c4.67-8.224,19.638-4.547,21.586,3.413c0.905,3.671,0.864,11.754-0.586,14.938
		c-2.607,5.713-6.185,4.424-5.833,11.78c3.281,1.017,7.254-1.816,9.472-3.967c2.332-2.259,3.803-6.056,4.729-9.062
		c2.566-8.32,0.375-13.594-4.737-20.78c-3.938-5.531-8.288-9.633-16.222-7.755c-5.355,1.266-17.619,10.661-6.519,12.847"/>
</g>
<g id="Text" display="none">
	
		<text transform="matrix(1 0 0 1 4.3364 163.8838)" display="inline" opacity="0.1" fill="#E6E7E8" font-family="'OCRAStd'" font-size="21">I.R.Termite</text>
	<text transform="matrix(1 0 0 1 55.3364 167.8838)" display="inline" fill="#E6E7E8" font-family="'OCRAStd'" font-size="8">I.R.Termite</text>
</g>
<g id="Text_2" display="none">
	<g display="inline">
		<defs>
			<text id="SVGID_1_" transform="matrix(0.7668 0.6419 -0.6419 0.7668 -10.9976 90.085)" font-family="'OCRAStd'" font-size="21">I.R.Termite</text>
		</defs>
		<clipPath id="SVGID_2_">
			<use xlink:href="#SVGID_1_"  overflow="visible"/>
		</clipPath>
		<circle opacity="0.1" clip-path="url(#SVGID_2_)" fill="#E6E7E8" cx="87.5" cy="87.5" r="87.5"/>
	</g>
	
		<text transform="matrix(0.7668 0.6419 -0.6419 0.7668 5.5415 111.8887)" display="inline" fill="#E6E7E8" font-family="'OCRAStd'" font-size="12">I.R.Termite</text>
</g>
<g id="Beard_Shadow">
	<path opacity="0.35" fill="#9B8579" d="M372.645,520.931c-3.495-6.278-18.164-0.161-20.766,4.444
		c-2.481,4.38-2.361,10.351-4.881,15.091c-2.06,3.899-5.068,7.345-7.468,11.353c-5.889,9.812-15.615,16.251-14.687,28.948
		c0.428,5.83,0.293,3.199,0.902,8.988c0.671,6.39,0.29,5.848-3.267,10.799c-5.229,7.277-2.684,7.277-11.197,13.23
		c-9.457,6.612-7.526,4.664-12.032,6.261c-4.38,1.553-8.089-1.184-16.233-0.331c-7.283-0.428-7.23-3.536-10.605-7.072
		c-4.178-4.374,4.717,8.584-4.983-8.839c-4.79-8.602-5.183-9.782-9.366-18.738c-2.185-4.685-3.193-10.119-5.313-14.936
		c-1.768-4.028-4.781-7.925-6.353-11.933c-1.975-5.042-3.655-17.276-9.204-28.154c0.532,6.056,2.441,10.661,3.38,16.875
		c1.487,9.861,3.431,13.339,4.847,18.683c2.693,10.14,4.816,11.868,8.945,21.762c2.115,5.071,4.686,11.068,7.378,15.639
		c2.651,4.506,11.473,20.25,11.473,20.25s13.269,21.023,19.02,32.394c5.244,10.365,9.498,17.253,14.73,26.429
		c5.522,9.677,8.654,13.676,13.339,22.017c3.662,6.516,8.074,12.39,10.605,16.5c2.742,4.447,2.663,3.454,12.12,15
		c9.454,11.546,2.045,2.306,15.152,17.133c13.104,14.824,14.678,9.917,40.395,10.128c6.179,0,15.691-0.296,21.346-1.852
		c6.475-1.778,11.115-3.987,17.915-4.603c11.572-1.034,22.354-1.395,33.97-3.243c7.178-1.134,11.953-5.224,17.859-8.991
		c5.736-3.665,10.869-3.425,17.218-5.03c13.438-3.396,25.825-12.226,36.697-19.919c10.052-7.113,19.764-13.459,29.405-21.305
		c9.021-7.333,18.267-14.314,27.738-20.511c9.407-6.158,17.625-13.269,26.736-19.77c8.13-5.786,17.256-12.727,23.663-20.569
		c13.181-16.163,17.575-36.231,17.575-57.445c0-24.609-4.781-45.322-4.729-69.853c0.032-13.69-8.719-23.985-10.175-37.57
		c-1.204-11.25-0.527-22.521-2.238-33.665c-1.667-10.91,3.867-20.297-2.089-29.672c-4.113-6.469-5.095-18.94-12.817-18.141
		c-1.898,0.196-11.643-20.713-13.415-19.975c-4.324,1.805-4.072,32.777-4.737,37.772c-1.866,14.024,1.497,23.848,5.476,36.542
		c4.063,12.979,3.363,0.457,3.363,14.314c0,23.766-3.554,20.742-10.184,29.561c-6.524,8.669-15.076,14.566-23.83,21.302
		c-8.604,6.624-16.579,10.831-26.821,15.996c-13.213,6.665-19.008,8.32-29.997,8.798c-15.771,0.683-8.569-1.148-29.13,3.044
		c0,0-4.948-0.029-10.441-5.766c-5.921-10.104-16.11-13.931-26.171-17.956c-5.499-2.194-9.955-5.197-15.973-5.64
		c-6.021-0.451-11.426,0.674-17.115-1.646c-8.446-3.439-24.272-6.475-32.997-3.17c-10.274,3.899-11.004,8.101-10.781,18.539
		c0.059,2.751,3.996,11.118,6.202,12.431c2.168,1.295,4.494-1.072,7.919-2.065c10.046-2.924,22.696-3.234,33.202-2.229
		c11.376,1.09,21.639,1.737,31.802,6.053c8.438,3.58,17.364,14.625,18.313,23.353c1.289,11.786,6.697,22.529,6.618,34.389
		c-0.1,15.246-16.11,10.849-27.606,11.37c-8.232,0.372-7.893,4.418-13.928,8.057c-2.692,1.617-12.035,2.701-14.736,0.832
		c-2.467-1.708-4.409-10.471-5.941-13.453c-2.13-4.146-3.46-5.968-7.966-6.791c-3.932-0.718-10.128-0.548-13.749,1.034
		c-5.013,2.194-5.235,7.327-11.563,5.549c-0.05,0.645-0.24,1.456-0.27,2.194c-1.427-0.627-2.742-0.296-4.11-1.808
		c-0.788,1.04-1.072,0.8-1.213,2.391c-3.647-0.185-1.228,1.98-3.331,3.12c-1.151,0.612-3.284-0.141-4.315,0.501
		c-2.159,1.356-4.6,4.351-7.603,3.647c0.029,9.431,20.783,16.582,7.075,26.508c-4.359,3.152-10.852,6.006-16.559,5.895
		c-5.543-0.1-13.564-0.12-18.917-1.635c-6.902-1.96-7.187-5.968-8.845-12.557c-1.383-5.476-4.389-9.363-4.761-15.217
		c-0.349-5.446-1.207-12.234-1.242-17.133c-0.038-5.42,2.988-8.619,5.229-13.289c2.903-6.062,5.936-11.294,10.356-16.84
		c4.474-5.613,7.863-12.776,12.656-18.021c5.646-6.182,10.069-2.2,12.671-10.682c0.794-2.575-1.447-6.85-2.432-9.604
		C375.686,525.173,374.616,523.758,372.645,520.931"/>
</g>
<g id="Beard">
	<path fill="#4A3222" d="M372.645,520.931c-3.094-6.038-18.164-0.161-20.766,4.444c-2.481,4.38-2.361,10.351-4.881,15.091
		c-2.06,3.899-5.068,7.345-7.468,11.353c-5.889,9.812-15.615,16.251-14.687,28.948c0.428,5.83,2.807,10.913,3.416,16.705
		c0.671,6.387,0.829,12.164,1.934,18.179c2.068,11.3,1.55,23.496,4.233,33.8c2.912,11.171,47.936,114.047,70.564,149.836
		c8.783,21.677,21.706,36.996,35.777,43.5c6.094,2.818,26.268-3.492,33.067-4.104c11.572-1.034,1.784-21.967,13.4-23.815
		c7.175-1.134,27.381,10.207,33.287,6.439c5.736-3.668,10.869-3.425,17.218-5.033c13.438-3.396,17.771-11.842,16.125-25.061
		c-3.48-27.949-6.012-61.046-10.436-86.64c-6.483-26.508-9.577-46.567-13.717-63.281c-5.247-21.205-10.717-52.409-17.197-72.366
		c-3.715-11.452-10.254-27.545-15.583-36.624c-5.921-10.104-16.11-13.931-26.171-17.956c-5.499-2.194-9.955-5.197-15.973-5.64
		c-6.021-0.451-11.426,0.674-17.115-1.646c-8.446-3.439-24.272-6.475-32.997-3.17c-10.274,3.899-11.004,8.101-10.781,18.539
		c0.059,2.751,3.996,11.118,6.202,12.431c2.168,1.295,4.494-1.072,7.919-2.065c10.046-2.924,22.696-3.234,33.202-2.229
		c11.376,1.09,21.639,1.737,31.802,6.053c8.438,3.58,17.364,14.625,18.313,23.353c1.289,11.786,6.697,22.529,6.618,34.389
		c-0.1,15.246-16.11,10.849-27.606,11.37c-8.232,0.372-7.893,4.418-13.928,8.057c-2.692,1.617-12.035,2.701-14.736,0.832
		c-2.467-1.708-4.409-10.471-5.941-13.453c-2.13-4.146-3.46-5.968-7.966-6.791c-3.932-0.718-10.128-0.548-13.749,1.034
		c-5.013,2.194-5.235,7.327-11.563,5.549c-0.05,0.645-0.24,1.456-0.27,2.194c-1.427-0.627-2.742-0.296-4.11-1.808
		c-0.788,1.04-1.072,0.8-1.213,2.391c-3.647-0.185-1.228,1.98-3.331,3.12c-1.151,0.612-3.284-0.141-4.315,0.501
		c-2.159,1.356-4.6,4.351-7.603,3.647c0.029,9.431,20.783,16.582,7.075,26.508c-4.359,3.152-10.852,6.006-16.559,5.895
		c-5.543-0.1-11.953,0.167-16.852-2.479c-5.039-2.725-7.986-4.342-9.642-10.931c-1.383-5.473-4.342-10.216-4.714-16.069
		c-0.346-5.446-2.522-12.164-2.558-17.062c-0.038-5.42,2.988-8.619,5.229-13.289c2.903-6.062,5.936-11.294,10.356-16.84
		c4.474-5.613,7.863-12.776,12.656-18.021c5.646-6.182,10.069-2.2,12.671-10.682c0.794-2.575-1.447-6.85-2.432-9.604
		C375.686,525.173,374.616,523.758,372.645,520.931"/>
</g>
<g id="Beard_White">
	<path fill="#A7A9AC" d="M356.227,669.826c7.157,26.297,13.119,33.671,25.052,59.174c11.936,25.503,43.866,88.685,53.294,102.416
		C443.997,845.147,450,843.179,450,843.179l21.987-4.245c0,0-6.773-12.647-15.562-35.789s-17.566-45.858-31.714-78.639
		s-16.884-49.184-19.392-55.263c-4.178-9.352-12.812-19.811-21.211-16.743c-5.64,2.396-9.785,6.85-16.752,4.822
		C359.643,654.223,354.744,655.714,356.227,669.826z"/>
	<path fill="#A7A9AC" d="M452.944,646.072c0,0,3.645,16.23,9.592,34.23s20.49,58.954,25.392,71.183s21.697,62.531,28.277,70.538
		c2.742,1.315,4.318-0.718,10.184-3.366c17.47-3.032,15.539-1.746,22.506-8.06c-2.44-13.052-3.108-14.259-6.967-26.312
		c-3.855-12.053-16.532-75.853-21.193-94.5s-14.669-58.696-14.669-58.696s-4.181-14.499-12.029-10.731
		c-5.004,1.828-12.234,0.844-17.678,2.25c-5.446,1.406-11.883,7.904-17.358,8.033C452.692,631.21,452.944,646.072,452.944,646.072"
		/>
</g>
<g id="Beard_White_2" display="none">
	<path display="inline" fill="#A7A9AC" d="M345.029,602.165c2.007,25.263,24.316,75.618,36.249,101.121
		c11.936,25.503,43.866,88.685,53.294,102.416c9.425,13.729,15.428,11.76,15.428,11.76l21.987-4.242c0,0-6.773-12.647-15.562-35.789
		c-8.789-23.145-17.566-45.858-31.714-78.639c-14.147-32.783-28.828-87.797-31.339-93.873c-0.8,3.223-3.691,7.828-12.094,10.898
		c-5.637,2.396-16.453,2.49-23.42,0.463C350.145,613.181,348.428,610.497,345.029,602.165z"/>
	<path display="inline" fill="#A7A9AC" d="M441.683,588.902c0,0,14.906,47.687,20.854,65.687s20.49,58.951,25.392,71.183
		c4.901,12.229,21.697,62.531,28.277,70.538c2.742,1.315,4.318-0.718,10.184-3.366c17.47-3.032,15.539-1.746,22.506-8.06
		c-2.44-13.055-3.108-14.259-6.967-26.312c-3.855-12.056-16.532-75.853-21.193-94.5s-23.077-92.332-23.077-92.332
		s0.949,3.797-6.902,7.564c-5.001,1.828-18.615-0.17-24.062,1.236c-5.443,1.406-8.657,8.637-14.133,8.769
		C446.253,589.878,441.683,588.902,441.683,588.902"/>
</g>
<g id="Glasses">
	<path fill="#6C301E" d="M517.491,318.214c0.088,4.937,2.534,14.561,5.317,18.498c2.839,4.017,8.543,6.729,13.163,9.302
		c9.984,5.563,20.692,8.446,30.22,14.625c4.676,3.032,9.548,6.688,15.442,8.361c5.889,1.673,10.679,3.712,15.7,6.911
		c9.583,6.103,18.542,12.36,27.996,18.366c5.062,3.22,11.279,6.955,16.181,9.114c-1.184-3.87-3.545-7.608-4.479-11.104
		c-0.738-2.751,0.507-7.362-0.724-9.853c-1.658-3.346-9.372-6.58-12.606-8.021c-10.816-4.822-18.375-13.099-29.692-17.965
		c-10.898-4.682-21.167-9.064-31.679-14.968c-10.931-6.135-21.155-10.857-31.843-17.654c-3.586-2.279-8.578-6.498-12.917-6.797
		c0.246,1.597-1.16,2.25-1.365,3.111"/>
	<path opacity="0.2" fill="#9F2214" d="M375.419,373.5c5.259,9.448,13.837,17.341,21.7,24.088c4.02,3.448,7.901,6.914,12.261,8.965
		c5.077,2.394,10.863,2.3,17.326,2.306c12.044,0.015,20.804-6.826,31.515-10.623c10.491-3.727,23.06-5.344,32.288-9.926
		c4.913-2.44,7.966-6.246,12.466-8.897c4.863-2.862,10.547-5.253,14.215-9.926c7.298-9.302,1.808-22.91-2.915-32.007
		c-6.428-12.384-12.609-16.737-25.743-21.404c-7.248-2.578-10.23-1.336-16.201,1.957c-5.73,3.161-11.291,3-17.373,5.326
		c-3.768,1.441-7.438,4.503-10.913,6.105c-4.14,1.91-8.268,1.734-12.521,3.073c-5.007,1.582-8.692,5.672-13.529,7.418
		c-4.008,1.447-9.267,1.236-13.5,2.361c-17.08,4.529-26.774,14.373-30.36,31.825"/>
	<path fill="#6E2405" d="M371.561,370.286c-1.254-6.51,5.259-10.172,8.101-14.751c3.437-5.534,3.858-6.68,10.075-10.166
		c10.878-6.091,21.205-11.35,33.094-15.117c6.196-1.957,10.471-4.368,16.925-5.593c5.479-1.04,10.216-3.771,15.349-5.977
		c9.812-4.216,25.512-7.734,36.029-5.628c4.248,0.847,7.312,1.808,12.003,2.027c0.463,2.35-1.154,5.405-3.144,6.706
		c-3.475,2.285-2.927,0.483-6.237-0.393c-5.877-1.556-10.559-1.286-16.248-0.738c-7.166,0.688-10.682,1.271-17.071,4.433
		c-5.704,2.821-10.989,2.487-17.177,3.894c-6.176,1.406-9.647,5.036-15.161,7.4c-5.057,2.171-10.31,3.949-15.363,6.243
		c-9.618,4.359-23.44,5.511-30.1,15.088c-2.481,3.565-5.241,16.002-10.336,16.342c-0.126-1.195-0.24-2.552-0.094-3.771"/>
	<path fill="#6E2405" d="M331.649,389.347c1.702-7.403,9.542-13.307,16.784-16.043c3.144-1.184,23.329-5.191,25.585-2.889
		c3.765,3.853-3.838,5.836-6.17,6.299c-5.101,1.011-7.09,1.784-11.73,3.697c-7.066,2.912-19.242,4.494-21.205,13.122
		c-0.697-0.697-4.471,1.11-4.811,0c-0.483-0.296-3.064-0.923-1.166-1.274c-0.182-0.894,3.176-2.49,2.769-3.331"/>
	<path fill="#BE1E2D" d="M502.061,317.572c3.214,4.488,0.091,15.823,4.456,18.706c2.215,1.462,7.187-1.104,9.656-0.738
		c2.895,0.428,6.46,3.006,8.259,5.139c0.768-3.495-2.115-7.195-3.05-10.286c-1.008-3.325-0.899-6.943-1.963-10.23
		c-2.411-7.444-9.272-7.418-17.276-6.993c-0.091,1.356-0.785,2.54-0.724,3.759"/>
	<path fill="#6E2405" d="M211.49,434.572c0.105-6.396,21.048-16.488,26.211-19.945c8.881-5.941,18.342-13.418,27.629-18.179
		c10.078-5.165,21.018-9.334,32.338-9.448c7.635-0.079,30.044-4.304,31.57,6.533c-10.38-0.601-23.37-0.601-34.192-0.1
		c-9.642,0.442-20.109,5.786-27.744,10.767c-9.069,5.918-19.626,11.13-28.952,16.263c-8.221,4.515-20.004,10.588-26.343,17.93
		c-2.128-1.169-3.224-3.132-3.023-5.508c1.747-0.387,3.321,0.105,4.436,1.043"/>
	<path opacity="0.2" fill="#9F2214" d="M210.203,438.428c0.066,20.086,17.676,50.027,41.16,46.28
		c5.322-0.847,10.084-4.172,14.734-6.548c5.484-2.798,11.672-3.999,17.358-6.911c10.723-5.505,23.071-10.641,32.695-17.537
		c8.194-5.865,17.792-14.109,21.483-23.795c4.884-12.832,0.595-21.647-7.403-30.577c-8.502-9.492-18.598-13.474-31.992-10.415
		c-10.034,2.3-20.18,7.271-29.25,11.771c-11.022,5.47-22.931,8.9-33.72,15.246c-8.361,4.928-25.647,10.784-25.707,22.485"/>
</g>
<g id="Head_hair">
	<path fill="#4A3222" d="M237.191,530.042c-10.736-20.81-27.002-44.268-30.909-67.321c-6.269-36.952-3.181-47.561-8.317-57.475
		c-0.572,5.575-1.205,5.314-4.409,9.914c0.17-10.538,7.366-42.463-0.452-49.983c-0.518,2.528-1.446,4.441-1.537,7.031
		c-0.372-10.213,1.632-19.62,1.28-29.821c0.368,3.557-3.812,10.688-4.364,13.731c-8.307-12.902-0.189-42.63-0.969-57.688
		c-4.807,2.215-8.172,8.068-8.875,14.314c-2.023-16.459,13.17-37.705,15.363-54.863c-2.094,1.889-4.475,3.506-6.253,5.401
		c7.976-10.494,30.175-24.79,25.192-40.655c-6.138,0.184-10.392,3.916-14.875,7.907c4.026-12.868,27.246-24.434,26.656-37.688
		c-2.967,3.029-7.572,3.597-12.203,2.291c9.472-3.944,17.723-12.48,22.5-21.536c3.706-7.028-3.344-10.262,6.719-12.912
		c9.457-2.49,12.547-0.469,15.861,6.622c-0.26-11.421,3.643-15.331,2.606-25.325c4.436,0.334,10.594,1.838,13.726,5.205
		c2.039-7.613,3.305-9.832,5.25-17.166c0.305,0.07,3.173,0.043,3.448-0.035c-0.205,6.125,2.493,11.855,8.309,9.01
		c3.108-1.521,4.931-15.745,8.338-19.355c-1.371,20.479,16.995,0.582,23.522-4.563c8.669-6.831,18.343-10.565,26.681-17.231
		c-0.574,3.896,0.58,8.846,0.671,12.59c12.17-3.455,20.32-11.799,31.093-16.898c11.959-5.661,24.615-10.256,36.633-16.338
		c-3.961,3.079-7.257,7.579-7.629,12.559c12.463,0.213,25.418-3.633,38.678-3.614c-15.609,5.188,9.914,10.384,11.827,16.488
		c12.22,3.831,30.853,3.24,40.878,7.945c-3.606,1.757-8.326,4.957-10.714,9.024c18.407,8.079,24.475,14.537,46.251,14.02
		c-16.614,3.354,1.869,7.764,5.815,10.02c5.977,3.414,10.945,9.3,17.238,13.531c15.308,10.295,29.921,17.016,42.765,30.538
		c10.406,10.954,20.364,20.753,29.827,33.464c8.9,11.958,16.729,27.355,28.028,38.366c-5.839-0.814-10.371-6.029-14.643-10.336
		c7.187,5.941,11.807,14.108,16.321,21.817c4.184,7.143,13.506,16.371,15.967,24.621c-2.985-1.579-6.671-1.846-9.785-4.72
		c5.569,20.795,26.429,35.212,29.145,58.723c0.548,4.746-0.999,11.01,0.226,15.554c1.356,5.019,6.891,11.101,9.343,16.62
		c3.015,6.788,4.62,34.189-9.149,21.272c0.741,11.312,6.75,21.407,6.126,35.191c-6.398,0.097-22.521-18.847-25.286-25.532
		c-1.424,8.903,4.403,20.736-1.192,27.29c-6.589,7.711-12.797,3.993-14.558-5.61c1.471,4.477-3.864,11.924-5.145,18.231
		c-1.772,8.719,0.398,19.236-0.196,28.181c-6.929-15.674-9.952-30.847-9.023-47.848c0.34-6.278,2.587-12.334,0.668-18.352
		c-2.2-6.896-10.251-11.637-11.607-18.422c-0.483,3.577-2.215,5.695-3.27,8.83c-4.424-6.735-4.576-17.508-8.719-24.448
		c-3.797-6.363-8.979-12.407-13.69-18.07c-10.386-12.501-28.412-25.134-35.256-39.082c1.515,2.317,3.34,3.12,5.423,5.019
		c0.448-15.422-26.619-32.136-37.556-42.117c0.932,6.996,2.188,12.302,7.348,17.288c-3.48-14.2-22.146-26.376-29.024-39.853
		c-5.124-10.026-14.757-19.653-16.995-31.072c-4.983,7.787-1.559,21.372-2.833,30.239c-16.274-18.619-12.179-44.963-35.684-59.352
		c3.431,9.4,4.078,20.036,7.849,29.137c-8.76-11.315-19.828-23.789-29.637-33.172c-1.603,9.745,5.183,21.75,13.195,26.738
		c-17.098,6.494-32.786-24.33-44.795-31.875c0.27,14.498,12.63,31.627,17.733,44.285c-1.315-2.678-4.837-5.381-6.533-7.571
		c-4.641,15.106-12.688,0.997-17.127-4.799c2.068,4.929,4.55,13.138,4.213,20.854c-3.82-13.922-12.797-35.848-24.483-44.95
		c0.161,10.393,0.07,20.798,0.062,31.197c0.34-19.455-18.63-55.546-23.109-18.707c-4.151-7.407-10.406-16.519-10.315-25.354
		c0,10.692,4.585,39.341-2.827,46.183c-2.511-2.473-12.677-20.908-14.76-21.264c-8.402-1.441-6.926,10.39-8.127,17.055
		c-2.953,16.338-6.103,32.264-11.145,48.24c-4.254-3.56-4.459-10.441-6.896-15.554c-3.812,4.318-8.672-1.647-11.815-5.556
		c-5.596,6.944-5.145,17.163-6.299,25.703c-9.085-7.585-6.088-25.538-9.352-35.914c-1.04-0.457-2.074-0.47-3.105-0.037
		c-7.061,14.075-12.976,22.738-13.102,38.755c-0.105,13.77-5.379,24.149-6.423,37.605c1.506-14.634-11.331-21.041-9.006-5.312
		c-0.005-16.881,1.18-33.275,1.314-50.191c-2.465,8.364-7.418,15.899-9.346,24.076c-1.929,8.191-0.241,16.904-0.969,25.392
		c-0.824,9.612-5.57,15-7.745,23.338c-2.49,9.557,0.417,22.125-0.194,32.068c-8.057-2.713-9.137-12.354-10.061-20.019
		c2.797,11.238,4.5,20.13,5.55,27.847c1.347,9.92-2.964,7.626,1.225,15.053c6.891,12.234,3.511,32.862,3.511,46.778
		c0,15.047-0.336,23.616,3.791,41.37c2.653,16.538-1.234,27.832-0.405,43.421"/>
</g>
</svg>
